<svg width="17" height="904" viewBox="0 0 17 904" fill="none" xmlns="http://www.w3.org/2000/svg">
<path d="M12.2529 423.047L13.2529 423.056L12.2529 423.047ZM10.2885 644.652L9.28858 644.643L10.2885 644.652ZM9.06876 782.439L10.0687 782.448L10.0687 782.448L9.06876 782.439ZM7.287 903.701C7.67403 904.095 8.30719 904.101 8.70117 903.714L15.1213 897.406C15.5152 897.019 15.5209 896.386 15.1338 895.992C14.7468 895.598 14.1136 895.593 13.7197 895.98L8.01286 901.586L2.40637 895.879C2.01934 895.485 1.38618 895.48 0.992202 895.867C0.598263 896.254 0.592653 896.887 0.979684 897.281L7.287 903.701ZM9.00032 903.009L9.01811 901L7.0182 900.982L7.00037 902.991L9.00032 903.009ZM9.05373 896.981L9.08935 892.962L7.08944 892.945L7.05382 896.963L9.05373 896.981ZM9.12493 888.944L9.16056 884.925L7.16064 884.907L7.12502 888.926L9.12493 888.944ZM9.19618 880.906L9.2318 876.888L7.23188 876.87L7.19626 880.889L9.19618 880.906ZM9.26742 872.869L9.30304 868.85L7.30312 868.832L7.2675 872.851L9.26742 872.869ZM9.33862 864.831L9.37424 860.813L7.37432 860.795L7.3387 864.814L9.33862 864.831ZM9.40986 856.794L9.44548 852.775L7.44556 852.757L7.40994 856.776L9.40986 856.794ZM9.4811 848.756L9.51672 844.738L7.5168 844.72L7.48118 848.739L9.4811 848.756ZM9.55234 840.719L9.58792 836.7L7.588 836.683L7.55238 840.701L9.55234 840.719ZM9.62354 832.682L9.65916 828.663L7.65924 828.645L7.62362 832.664L9.62354 832.682ZM9.69478 824.644L9.73041 820.625L7.73045 820.608L7.69487 824.626L9.69478 824.644ZM9.76599 816.607L9.80161 812.588L7.80169 812.57L7.76607 816.589L9.76599 816.607ZM9.83723 808.569L9.87286 804.551L7.87294 804.533L7.83732 808.552L9.83723 808.569ZM9.90847 800.532L9.94406 796.513L7.94414 796.495L7.90852 800.514L9.90847 800.532ZM9.97968 792.494L10.0153 788.476L8.01538 788.458L7.97976 792.477L9.97968 792.494ZM10.0509 784.457L10.0687 782.448L8.06878 782.43L8.051 784.439L10.0509 784.457ZM10.0687 782.448L10.0866 780.421L8.08672 780.404L8.06882 782.43L10.0687 782.448ZM10.1225 776.369L10.1584 772.316L8.15849 772.298L8.1226 776.351L10.1225 776.369ZM10.1943 768.264L10.2302 764.211L8.23023 764.193L8.19438 768.246L10.1943 768.264ZM10.266 760.159L10.3019 756.106L8.302 756.088L8.26611 760.141L10.266 760.159ZM10.3378 752.053L10.3737 748.001L8.37373 747.983L8.33789 752.036L10.3378 752.053ZM10.4095 743.948L10.4454 739.896L8.44551 739.878L8.40962 743.931L10.4095 743.948ZM10.4813 735.843L10.5172 731.791L8.51724 731.773L8.48139 735.826L10.4813 735.843ZM10.5531 727.738L10.5889 723.686L8.58901 723.668L8.55313 727.72L10.5531 727.738ZM10.6248 719.633L10.6607 715.58L8.66074 715.563L8.62486 719.615L10.6248 719.633ZM10.6966 711.528L10.7324 707.475L8.73252 707.458L8.69663 711.51L10.6966 711.528ZM10.7683 703.423L10.8042 699.37L8.80425 699.353L8.76837 703.405L10.7683 703.423ZM10.8401 695.318L10.876 691.265L8.87602 691.247L8.84014 695.3L10.8401 695.318ZM10.9118 687.213L10.9477 683.16L8.94776 683.142L8.91187 687.195L10.9118 687.213ZM10.9836 679.107L11.0194 675.055L9.01951 675.037L8.98364 679.09L10.9836 679.107ZM11.0553 671.002L11.0912 666.95L9.09127 666.932L9.0554 670.985L11.0553 671.002ZM11.1271 662.897L11.1629 658.845L9.16301 658.827L9.12715 662.88L11.1271 662.897ZM11.1988 654.792L11.2347 650.74L9.23477 650.722L9.19889 654.774L11.1988 654.792ZM11.2706 646.687L11.2885 644.661L9.28858 644.643L9.27065 646.669L11.2706 646.687ZM11.2885 644.661L11.3061 642.682L9.30613 642.664L9.28858 644.643L11.2885 644.661ZM11.3411 638.725L11.3762 634.768L9.37628 634.75L9.34121 638.707L11.3411 638.725ZM11.4113 630.81L11.4464 626.853L9.44643 626.836L9.41137 630.793L11.4113 630.81ZM11.4814 622.896L11.5165 618.939L9.51658 618.921L9.48151 622.878L11.4814 622.896ZM11.5516 614.982L11.5867 611.024L9.58674 611.007L9.55167 614.964L11.5516 614.982ZM11.6218 607.067L11.6568 603.11L9.65691 603.092L9.62183 607.049L11.6218 607.067ZM11.6919 599.153L11.727 595.195L9.72706 595.178L9.69198 599.135L11.6919 599.153ZM11.762 591.238L11.7971 587.281L9.7972 587.263L9.76213 591.22L11.762 591.238ZM11.8322 583.324L11.8673 579.366L9.86737 579.349L9.8323 583.306L11.8322 583.324ZM11.9024 575.409L11.9374 571.452L9.93753 571.434L9.90244 575.392L11.9024 575.409ZM11.9725 567.495L12.0076 563.538L10.0077 563.52L9.97261 567.477L11.9725 567.495ZM12.0427 559.58L12.0778 555.623L10.0778 555.605L10.0427 559.563L12.0427 559.58ZM12.1128 551.666L12.1479 547.709L10.148 547.691L10.1129 551.648L12.1128 551.666ZM12.183 543.751L12.2181 539.794L10.2181 539.776L10.1831 543.734L12.183 543.751ZM12.2531 535.837L12.2882 531.88L10.2883 531.862L10.2532 535.819L12.2531 535.837ZM12.3233 527.922L12.3584 523.965L10.3585 523.947L10.3234 527.905L12.3233 527.922ZM12.3934 520.008L12.4285 516.051L10.4286 516.033L10.3935 519.99L12.3934 520.008ZM12.4636 512.093L12.4987 508.136L10.4988 508.119L10.4637 512.076L12.4636 512.093ZM12.5338 504.179L12.5688 500.222L10.5689 500.204L10.5338 504.161L12.5338 504.179ZM12.6039 496.265L12.639 492.307L10.6391 492.29L10.604 496.247L12.6039 496.265ZM12.6741 488.35L12.7091 484.393L10.7092 484.375L10.6741 488.332L12.6741 488.35ZM12.7442 480.436L12.7793 476.478L10.7794 476.461L10.7443 480.418L12.7442 480.436ZM12.8144 472.521L12.8495 468.564L10.8495 468.546L10.8145 472.504L12.8144 472.521ZM12.8845 464.607L12.9196 460.65L10.9197 460.632L10.8846 464.589L12.8845 464.607ZM12.9547 456.692L12.9898 452.735L10.9898 452.717L10.9548 456.675L12.9547 456.692ZM13.0249 448.778L13.0599 444.821L11.06 444.803L11.0249 448.76L13.0249 448.778ZM13.095 440.863L13.1301 436.906L11.1302 436.888L11.0951 440.846L13.095 440.863ZM13.1651 432.949L13.2002 428.992L11.2003 428.974L11.1652 432.931L13.1651 432.949ZM13.2353 425.035L13.2529 423.056L11.2529 423.038L11.2354 425.017L13.2353 425.035ZM13.2529 423.056L13.2705 421.06L11.2706 421.043L11.2529 423.038L13.2529 423.056ZM13.3059 417.069L13.3412 413.078L11.3413 413.061L11.306 417.052L13.3059 417.069ZM13.3766 409.087L13.4119 405.096L11.412 405.079L11.3766 409.07L13.3766 409.087ZM13.4473 401.105L13.4826 397.114L11.4827 397.097L11.4474 401.088L13.4473 401.105ZM13.518 393.123L13.5533 389.132L11.5534 389.115L11.5181 393.106L13.518 393.123ZM13.5887 385.141L13.624 381.15L11.6241 381.133L11.5887 385.124L13.5887 385.141ZM13.6594 377.159L13.6947 373.168L11.6948 373.15L11.6594 377.142L13.6594 377.159ZM13.7301 369.177L13.7654 365.186L11.7655 365.168L11.7301 369.159L13.7301 369.177ZM13.8008 361.195L13.8361 357.204L11.8362 357.186L11.8008 361.177L13.8008 361.195ZM13.8715 353.213L13.9068 349.222L11.9069 349.204L11.8715 353.195L13.8715 353.213ZM13.9422 345.231L13.9775 341.24L11.9776 341.222L11.9422 345.213L13.9422 345.231ZM14.0129 337.249L14.0482 333.258L12.0483 333.24L12.0129 337.231L14.0129 337.249ZM14.0836 329.267L14.1189 325.276L12.119 325.258L12.0836 329.249L14.0836 329.267ZM14.1542 321.285L14.1896 317.294L12.1897 317.276L12.1543 321.267L14.1542 321.285ZM14.225 313.303L14.2603 309.312L12.2604 309.294L12.225 313.285L14.225 313.303ZM14.2957 305.321L14.331 301.33L12.3311 301.312L12.2957 305.303L14.2957 305.321ZM14.3663 297.339L14.4017 293.348L12.4018 293.33L12.3664 297.321L14.3663 297.339ZM14.437 289.357L14.4724 285.366L12.4725 285.348L12.4371 289.339L14.437 289.357ZM14.5078 281.375L14.5431 277.384L12.5432 277.366L12.5078 281.357L14.5078 281.375ZM14.5784 273.393L14.6138 269.402L12.6139 269.384L12.5785 273.375L14.5784 273.393ZM14.6491 265.411L14.6845 261.42L12.6846 261.402L12.6492 265.393L14.6491 265.411ZM14.7198 257.429L14.7552 253.438L12.7553 253.42L12.7199 257.411L14.7198 257.429ZM14.7905 249.447L14.8259 245.456L12.826 245.438L12.7906 249.429L14.7905 249.447ZM14.8612 241.465L14.8966 237.474L12.8967 237.456L12.8613 241.447L14.8612 241.465ZM14.9319 233.483L14.9673 229.492L12.9674 229.474L12.932 233.465L14.9319 233.483ZM15.0026 225.501L15.038 221.51L13.0381 221.492L13.0027 225.483L15.0026 225.501ZM15.0733 217.519L15.1087 213.528L13.1087 213.51L13.0734 217.501L15.0733 217.519ZM15.144 209.537L15.1794 205.546L13.1794 205.528L13.1441 209.519L15.144 209.537ZM15.2147 201.555L15.2501 197.564L13.2502 197.546L13.2148 201.537L15.2147 201.555ZM15.2854 193.573L15.3208 189.582L13.3209 189.564L13.2855 193.555L15.2854 193.573ZM15.3561 185.591L15.3915 181.6L13.3915 181.582L13.3562 185.573L15.3561 185.591ZM15.4268 177.609L15.4622 173.618L13.4622 173.6L13.4269 177.591L15.4268 177.609ZM15.4975 169.627L15.5329 165.636L13.5329 165.618L13.4976 169.609L15.4975 169.627ZM15.5682 161.645L15.6036 157.654L13.6036 157.636L13.5683 161.627L15.5682 161.645ZM15.6389 153.663L15.6743 149.672L13.6743 149.654L13.639 153.645L15.6389 153.663ZM15.7096 145.681L15.745 141.69L13.745 141.672L13.7097 145.663L15.7096 145.681ZM15.7803 137.699L15.8157 133.708L13.8157 133.69L13.7804 137.681L15.7803 137.699ZM15.851 129.717L15.8864 125.726L13.8864 125.708L13.8511 129.699L15.851 129.717ZM15.9217 121.735L15.957 117.744L13.9571 117.726L13.9218 121.717L15.9217 121.735ZM15.9924 113.753L16.0277 109.762L14.0278 109.744L13.9925 113.735L15.9924 113.753ZM16.0631 105.771L16.0984 101.78L14.0985 101.762L14.0632 105.753L16.0631 105.771ZM16.1338 97.7889L16.1691 93.7979L14.1692 93.7802L14.1339 97.7712L16.1338 97.7889ZM16.2045 89.8069L16.2399 85.8159L14.2399 85.7982L14.2046 89.7892L16.2045 89.8069ZM16.2752 81.8249L16.3105 77.8339L14.3106 77.8162L14.2752 81.8072L16.2752 81.8249ZM16.3459 73.8429L16.3812 69.8519L14.3813 69.8342L14.346 73.8252L16.3459 73.8429ZM16.4166 65.861L16.4519 61.87L14.452 61.8522L14.4166 65.8432L16.4166 65.861ZM16.4873 57.879L16.5226 53.8879L14.5227 53.8702L14.4874 57.8612L16.4873 57.879ZM16.558 49.897L16.5933 45.906L14.5934 45.8883L14.558 49.8793L16.558 49.897ZM16.6287 41.915L16.664 37.924L14.6641 37.9063L14.6288 41.8973L16.6287 41.915ZM16.6994 33.933L16.7347 29.942L14.7348 29.9243L14.6994 33.9153L16.6994 33.933ZM16.7701 25.951L16.8054 21.96L14.8055 21.9423L14.7702 25.9333L16.7701 25.951ZM16.8407 17.9691L16.8761 13.978L14.8762 13.9603L14.8408 17.9513L16.8407 17.9691ZM16.9115 9.98703L16.9468 5.99603L14.9469 5.97832L14.9115 9.96932L16.9115 9.98703ZM16.9822 2.00503L16.9998 0.0090232L14.9999 -0.00872967L14.9823 1.98732L16.9822 2.00503ZM12.2529 423.047L13.2529 423.056L12.2529 423.047ZM10.2885 644.652L9.28858 644.643L10.2885 644.652ZM9.06876 782.439L10.0687 782.448L10.0687 782.448L9.06876 782.439ZM7.287 903.701C7.67403 904.095 8.30719 904.101 8.70117 903.714L15.1213 897.406C15.5152 897.019 15.5209 896.386 15.1338 895.992C14.7468 895.598 14.1136 895.593 13.7197 895.98L8.01286 901.586L2.40637 895.879C2.01934 895.485 1.38618 895.48 0.992202 895.867C0.598263 896.254 0.592653 896.887 0.979684 897.281L7.287 903.701ZM9.00032 903.009L9.01811 901L7.0182 900.982L7.00037 902.991L9.00032 903.009ZM9.05373 896.981L9.08935 892.962L7.08944 892.945L7.05382 896.963L9.05373 896.981ZM9.12493 888.944L9.16056 884.925L7.16064 884.907L7.12502 888.926L9.12493 888.944ZM9.19618 880.906L9.2318 876.888L7.23188 876.87L7.19626 880.889L9.19618 880.906ZM9.26742 872.869L9.30304 868.85L7.30312 868.832L7.2675 872.851L9.26742 872.869ZM9.33862 864.831L9.37424 860.813L7.37432 860.795L7.3387 864.814L9.33862 864.831ZM9.40986 856.794L9.44548 852.775L7.44556 852.757L7.40994 856.776L9.40986 856.794ZM9.4811 848.756L9.51672 844.738L7.5168 844.72L7.48118 848.739L9.4811 848.756ZM9.55234 840.719L9.58792 836.7L7.588 836.683L7.55238 840.701L9.55234 840.719ZM9.62354 832.682L9.65916 828.663L7.65924 828.645L7.62362 832.664L9.62354 832.682ZM9.69478 824.644L9.73041 820.625L7.73045 820.608L7.69487 824.626L9.69478 824.644ZM9.76599 816.607L9.80161 812.588L7.80169 812.57L7.76607 816.589L9.76599 816.607ZM9.83723 808.569L9.87286 804.551L7.87294 804.533L7.83732 808.552L9.83723 808.569ZM9.90847 800.532L9.94406 796.513L7.94414 796.495L7.90852 800.514L9.90847 800.532ZM9.97968 792.494L10.0153 788.476L8.01538 788.458L7.97976 792.477L9.97968 792.494ZM10.0509 784.457L10.0687 782.448L8.06878 782.43L8.051 784.439L10.0509 784.457ZM10.0687 782.448L10.0866 780.421L8.08672 780.404L8.06882 782.43L10.0687 782.448ZM10.1225 776.369L10.1584 772.316L8.15849 772.298L8.1226 776.351L10.1225 776.369ZM10.1943 768.264L10.2302 764.211L8.23023 764.193L8.19438 768.246L10.1943 768.264ZM10.266 760.159L10.3019 756.106L8.302 756.088L8.26611 760.141L10.266 760.159ZM10.3378 752.053L10.3737 748.001L8.37373 747.983L8.33789 752.036L10.3378 752.053ZM10.4095 743.948L10.4454 739.896L8.44551 739.878L8.40962 743.931L10.4095 743.948ZM10.4813 735.843L10.5172 731.791L8.51724 731.773L8.48139 735.826L10.4813 735.843ZM10.5531 727.738L10.5889 723.686L8.58901 723.668L8.55313 727.72L10.5531 727.738ZM10.6248 719.633L10.6607 715.58L8.66074 715.563L8.62486 719.615L10.6248 719.633ZM10.6966 711.528L10.7324 707.475L8.73252 707.458L8.69663 711.51L10.6966 711.528ZM10.7683 703.423L10.8042 699.37L8.80425 699.353L8.76837 703.405L10.7683 703.423ZM10.8401 695.318L10.876 691.265L8.87602 691.247L8.84014 695.3L10.8401 695.318ZM10.9118 687.213L10.9477 683.16L8.94776 683.142L8.91187 687.195L10.9118 687.213ZM10.9836 679.107L11.0194 675.055L9.01951 675.037L8.98364 679.09L10.9836 679.107ZM11.0553 671.002L11.0912 666.95L9.09127 666.932L9.0554 670.985L11.0553 671.002ZM11.1271 662.897L11.1629 658.845L9.16301 658.827L9.12715 662.88L11.1271 662.897ZM11.1988 654.792L11.2347 650.74L9.23477 650.722L9.19889 654.774L11.1988 654.792ZM11.2706 646.687L11.2885 644.661L9.28858 644.643L9.27065 646.669L11.2706 646.687ZM11.2885 644.661L11.3061 642.682L9.30613 642.664L9.28858 644.643L11.2885 644.661ZM11.3411 638.725L11.3762 634.768L9.37628 634.75L9.34121 638.707L11.3411 638.725ZM11.4113 630.81L11.4464 626.853L9.44643 626.836L9.41137 630.793L11.4113 630.81ZM11.4814 622.896L11.5165 618.939L9.51658 618.921L9.48151 622.878L11.4814 622.896ZM11.5516 614.982L11.5867 611.024L9.58674 611.007L9.55167 614.964L11.5516 614.982ZM11.6218 607.067L11.6568 603.11L9.65691 603.092L9.62183 607.049L11.6218 607.067ZM11.6919 599.153L11.727 595.195L9.72706 595.178L9.69198 599.135L11.6919 599.153ZM11.762 591.238L11.7971 587.281L9.7972 587.263L9.76213 591.22L11.762 591.238ZM11.8322 583.324L11.8673 579.366L9.86737 579.349L9.8323 583.306L11.8322 583.324ZM11.9024 575.409L11.9374 571.452L9.93753 571.434L9.90244 575.392L11.9024 575.409ZM11.9725 567.495L12.0076 563.538L10.0077 563.52L9.97261 567.477L11.9725 567.495ZM12.0427 559.58L12.0778 555.623L10.0778 555.605L10.0427 559.563L12.0427 559.58ZM12.1128 551.666L12.1479 547.709L10.148 547.691L10.1129 551.648L12.1128 551.666ZM12.183 543.751L12.2181 539.794L10.2181 539.776L10.1831 543.734L12.183 543.751ZM12.2531 535.837L12.2882 531.88L10.2883 531.862L10.2532 535.819L12.2531 535.837ZM12.3233 527.922L12.3584 523.965L10.3585 523.947L10.3234 527.905L12.3233 527.922ZM12.3934 520.008L12.4285 516.051L10.4286 516.033L10.3935 519.99L12.3934 520.008ZM12.4636 512.093L12.4987 508.136L10.4988 508.119L10.4637 512.076L12.4636 512.093ZM12.5338 504.179L12.5688 500.222L10.5689 500.204L10.5338 504.161L12.5338 504.179ZM12.6039 496.265L12.639 492.307L10.6391 492.29L10.604 496.247L12.6039 496.265ZM12.6741 488.35L12.7091 484.393L10.7092 484.375L10.6741 488.332L12.6741 488.35ZM12.7442 480.436L12.7793 476.478L10.7794 476.461L10.7443 480.418L12.7442 480.436ZM12.8144 472.521L12.8495 468.564L10.8495 468.546L10.8145 472.504L12.8144 472.521ZM12.8845 464.607L12.9196 460.65L10.9197 460.632L10.8846 464.589L12.8845 464.607ZM12.9547 456.692L12.9898 452.735L10.9898 452.717L10.9548 456.675L12.9547 456.692ZM13.0249 448.778L13.0599 444.821L11.06 444.803L11.0249 448.76L13.0249 448.778ZM13.095 440.863L13.1301 436.906L11.1302 436.888L11.0951 440.846L13.095 440.863ZM13.1651 432.949L13.2002 428.992L11.2003 428.974L11.1652 432.931L13.1651 432.949ZM13.2353 425.035L13.2529 423.056L11.2529 423.038L11.2354 425.017L13.2353 425.035ZM13.2529 423.056L13.2705 421.06L11.2706 421.043L11.2529 423.038L13.2529 423.056ZM13.3059 417.069L13.3412 413.078L11.3413 413.061L11.306 417.052L13.3059 417.069ZM13.3766 409.087L13.4119 405.096L11.412 405.079L11.3766 409.07L13.3766 409.087ZM13.4473 401.105L13.4826 397.114L11.4827 397.097L11.4474 401.088L13.4473 401.105ZM13.518 393.123L13.5533 389.132L11.5534 389.115L11.5181 393.106L13.518 393.123ZM13.5887 385.141L13.624 381.15L11.6241 381.133L11.5887 385.124L13.5887 385.141ZM13.6594 377.159L13.6947 373.168L11.6948 373.15L11.6594 377.142L13.6594 377.159ZM13.7301 369.177L13.7654 365.186L11.7655 365.168L11.7301 369.159L13.7301 369.177ZM13.8008 361.195L13.8361 357.204L11.8362 357.186L11.8008 361.177L13.8008 361.195ZM13.8715 353.213L13.9068 349.222L11.9069 349.204L11.8715 353.195L13.8715 353.213ZM13.9422 345.231L13.9775 341.24L11.9776 341.222L11.9422 345.213L13.9422 345.231ZM14.0129 337.249L14.0482 333.258L12.0483 333.24L12.0129 337.231L14.0129 337.249ZM14.0836 329.267L14.1189 325.276L12.119 325.258L12.0836 329.249L14.0836 329.267ZM14.1542 321.285L14.1896 317.294L12.1897 317.276L12.1543 321.267L14.1542 321.285ZM14.225 313.303L14.2603 309.312L12.2604 309.294L12.225 313.285L14.225 313.303ZM14.2957 305.321L14.331 301.33L12.3311 301.312L12.2957 305.303L14.2957 305.321ZM14.3663 297.339L14.4017 293.348L12.4018 293.33L12.3664 297.321L14.3663 297.339ZM14.437 289.357L14.4724 285.366L12.4725 285.348L12.4371 289.339L14.437 289.357ZM14.5078 281.375L14.5431 277.384L12.5432 277.366L12.5078 281.357L14.5078 281.375ZM14.5784 273.393L14.6138 269.402L12.6139 269.384L12.5785 273.375L14.5784 273.393ZM14.6491 265.411L14.6845 261.42L12.6846 261.402L12.6492 265.393L14.6491 265.411ZM14.7198 257.429L14.7552 253.438L12.7553 253.42L12.7199 257.411L14.7198 257.429ZM14.7905 249.447L14.8259 245.456L12.826 245.438L12.7906 249.429L14.7905 249.447ZM14.8612 241.465L14.8966 237.474L12.8967 237.456L12.8613 241.447L14.8612 241.465ZM14.9319 233.483L14.9673 229.492L12.9674 229.474L12.932 233.465L14.9319 233.483ZM15.0026 225.501L15.038 221.51L13.0381 221.492L13.0027 225.483L15.0026 225.501ZM15.0733 217.519L15.1087 213.528L13.1087 213.51L13.0734 217.501L15.0733 217.519ZM15.144 209.537L15.1794 205.546L13.1794 205.528L13.1441 209.519L15.144 209.537ZM15.2147 201.555L15.2501 197.564L13.2502 197.546L13.2148 201.537L15.2147 201.555ZM15.2854 193.573L15.3208 189.582L13.3209 189.564L13.2855 193.555L15.2854 193.573ZM15.3561 185.591L15.3915 181.6L13.3915 181.582L13.3562 185.573L15.3561 185.591ZM15.4268 177.609L15.4622 173.618L13.4622 173.6L13.4269 177.591L15.4268 177.609ZM15.4975 169.627L15.5329 165.636L13.5329 165.618L13.4976 169.609L15.4975 169.627ZM15.5682 161.645L15.6036 157.654L13.6036 157.636L13.5683 161.627L15.5682 161.645ZM15.6389 153.663L15.6743 149.672L13.6743 149.654L13.639 153.645L15.6389 153.663ZM15.7096 145.681L15.745 141.69L13.745 141.672L13.7097 145.663L15.7096 145.681ZM15.7803 137.699L15.8157 133.708L13.8157 133.69L13.7804 137.681L15.7803 137.699ZM15.851 129.717L15.8864 125.726L13.8864 125.708L13.8511 129.699L15.851 129.717ZM15.9217 121.735L15.957 117.744L13.9571 117.726L13.9218 121.717L15.9217 121.735ZM15.9924 113.753L16.0277 109.762L14.0278 109.744L13.9925 113.735L15.9924 113.753ZM16.0631 105.771L16.0984 101.78L14.0985 101.762L14.0632 105.753L16.0631 105.771ZM16.1338 97.7889L16.1691 93.7979L14.1692 93.7802L14.1339 97.7712L16.1338 97.7889ZM16.2045 89.8069L16.2399 85.8159L14.2399 85.7982L14.2046 89.7892L16.2045 89.8069ZM16.2752 81.8249L16.3105 77.8339L14.3106 77.8162L14.2752 81.8072L16.2752 81.8249ZM16.3459 73.8429L16.3812 69.8519L14.3813 69.8342L14.346 73.8252L16.3459 73.8429ZM16.4166 65.861L16.4519 61.87L14.452 61.8522L14.4166 65.8432L16.4166 65.861ZM16.4873 57.879L16.5226 53.8879L14.5227 53.8702L14.4874 57.8612L16.4873 57.879ZM16.558 49.897L16.5933 45.906L14.5934 45.8883L14.558 49.8793L16.558 49.897ZM16.6287 41.915L16.664 37.924L14.6641 37.9063L14.6288 41.8973L16.6287 41.915ZM16.6994 33.933L16.7347 29.942L14.7348 29.9243L14.6994 33.9153L16.6994 33.933ZM16.7701 25.951L16.8054 21.96L14.8055 21.9423L14.7702 25.9333L16.7701 25.951ZM16.8407 17.9691L16.8761 13.978L14.8762 13.9603L14.8408 17.9513L16.8407 17.9691ZM16.9115 9.98703L16.9468 5.99603L14.9469 5.97832L14.9115 9.96932L16.9115 9.98703ZM16.9822 2.00503L16.9998 0.0090232L14.9999 -0.00872967L14.9823 1.98732L16.9822 2.00503Z" fill="black"/>
</svg>
