<svg width="13" height="10" viewBox="0 0 14 11" fill="none" xmlns="http://www.w3.org/2000/svg">
<path fill-rule="evenodd" clip-rule="evenodd" d="M11.6514 0.401409C9.27646 3.96381 4.02632 3.96381 1.65139 0.401409C1.58573 0.302917 1.50131 0.218323 1.40296 0.152456C1.3046 0.0865898 1.19424 0.0407391 1.07816 0.0175247C0.962092 -0.00568962 0.842582 -0.0058136 0.726461 0.0171585C0.610339 0.0401306 0.499879 0.0857487 0.401388 0.151409C0.302897 0.21707 0.218302 0.301488 0.152436 0.399841C0.0865687 0.498195 0.0407191 0.608559 0.0175045 0.724632C-0.00571019 0.840706 -0.00583543 0.960215 0.0171363 1.07634C0.0401081 1.19246 0.085727 1.30292 0.151388 1.40141L5.81939 9.90341C5.91071 10.0404 6.03443 10.1527 6.17957 10.2303C6.32471 10.308 6.48678 10.3486 6.65139 10.3486C6.816 10.3486 6.97807 10.308 7.12321 10.2303C7.26834 10.1527 7.39207 10.0404 7.48339 9.90341L13.1514 1.40141C13.217 1.30292 13.2627 1.19246 13.2856 1.07634C13.3086 0.960215 13.3085 0.840706 13.2853 0.724632C13.2621 0.608559 13.2162 0.498195 13.1503 0.399841C13.0845 0.301488 12.9999 0.21707 12.9014 0.151409C12.8029 0.0857487 12.6924 0.0401306 12.5763 0.0171585C12.4602 -0.0058136 12.3407 -0.00568962 12.2246 0.0175247C12.1085 0.0407391 11.9982 0.0865898 11.8998 0.152456C11.8015 0.218323 11.717 0.302917 11.6514 0.401409Z" fill="black"/>
</svg>
