<svg width="65" height="65" viewBox="0 0 65 65" fill="none" xmlns="http://www.w3.org/2000/svg">
<path d="M32.5 7.22222C46.4353 7.22583 57.7778 18.5683 57.7778 32.5036C57.7778 46.4353 46.4353 57.7742 32.5 57.7778C18.5647 57.7778 7.22222 46.4389 7.22222 32.5036C7.22222 18.5683 18.5647 7.22583 32.5 7.22222ZM32.5 0C23.8805 1.81643e-07 15.614 3.4241 9.51903 9.51903C3.4241 15.614 0 23.8805 0 32.5C0 41.1195 3.4241 49.386 9.51903 55.481C15.614 61.5759 23.8805 65 32.5 65C41.1195 65 49.386 61.5759 55.481 55.481C61.5759 49.386 65 41.1195 65 32.5C65 23.8805 61.5759 15.614 55.481 9.51903C49.386 3.4241 41.1195 1.28441e-07 32.5 0ZM47.6017 17.4019C47.3743 17.1737 47.0898 17.0107 46.7779 16.93C46.466 16.8494 46.1381 16.8539 45.8286 16.9433L24.3389 23.1039C24.0446 23.1882 23.7768 23.3462 23.5607 23.5629C23.3445 23.7797 23.1873 24.048 23.1039 24.3425L16.9397 45.8322C16.86 46.1011 16.8445 46.3849 16.8945 46.6608C16.9445 46.9367 17.0585 47.197 17.2275 47.4208C17.3965 47.6446 17.6157 47.8256 17.8674 47.9492C18.1191 48.0728 18.3963 48.1356 18.6767 48.1325L19.175 48.0603L40.6611 41.8925C40.9554 41.8082 41.2232 41.6502 41.4393 41.4335C41.6555 41.2167 41.8127 40.9484 41.8961 40.6539L48.0603 19.1714C48.149 18.8624 48.1532 18.5353 48.0726 18.2241C47.9919 17.9129 47.8293 17.629 47.6017 17.4019ZM21.3056 43.6981L26.2997 26.3033L38.7003 38.7075L21.3056 43.6981Z" fill="#B5955C"/>
</svg>
