<svg width="48" height="175" viewBox="0 0 48 175" fill="none" xmlns="http://www.w3.org/2000/svg">
<path d="M28.1934 119.417L27.4756 145.154C27.4756 152.264 28.1592 157.151 29.5264 159.817C30.9619 162.483 32.6025 164.466 34.4482 165.765C36.3623 167.063 38.4814 167.918 40.8057 168.328C44.9756 169.08 47.0605 170.345 47.0605 172.122C47.0605 172.737 46.7188 173.353 46.0352 173.968C45.4199 174.583 44.4287 174.891 43.0615 174.891C33.5596 174.891 25.6299 170.174 19.2725 160.74C12.6416 150.965 9.32617 138.079 9.32617 122.083C9.32617 118.392 9.56543 114.563 10.0439 110.599C10.9326 103.147 11.377 98.6699 11.377 97.166C11.377 93.2695 8.2666 90.6035 2.0459 89.168C1.02051 88.8945 0.507812 88.3818 0.507812 87.6299C0.507812 86.8779 1.02051 86.3994 2.0459 86.1943C3.07129 85.9209 4.47266 85.4424 6.25 84.7588C9.66797 83.3916 11.377 80.8623 11.377 77.1709C11.377 76.2822 11.1377 73.8555 10.6592 69.8906C9.77051 62.4395 9.32617 55.7402 9.32617 49.793C9.32617 43.8457 10.2148 37.625 11.9922 31.1309C13.7695 24.5684 16.1963 19.0312 19.2725 14.5195C25.6299 5.08594 33.5596 0.369141 43.0615 0.369141C44.4287 0.369141 45.4199 0.676758 46.0352 1.29199C46.7188 1.90723 47.0605 2.625 47.0605 3.44531C47.0605 5.01758 45.4199 6.11133 42.1387 6.72656C38.9258 7.27344 36.3623 8.19629 34.4482 9.49512C32.6025 10.7939 31.1328 12.4688 30.0391 14.5195C28.3301 17.8008 27.4756 22.9961 27.4756 30.1055L28.1934 55.8428C27.9199 65.208 26.9629 71.668 25.3223 75.2227C23.6816 78.709 21.9385 81.3066 20.0928 83.0156C18.3154 84.7246 16.1621 86.2627 13.6328 87.6299C18.8965 90.501 22.5195 94.124 24.502 98.499C26.6895 103.216 27.9199 110.188 28.1934 119.417Z" fill="#B5955C"/>
</svg>
