<svg width="1237" height="480" viewBox="0 0 1237 480" fill="none" xmlns="http://www.w3.org/2000/svg">
<path d="M370.729 84.4383L371.53 83.8398L370.856 82.9377L370.04 83.7133L370.729 84.4383ZM664.379 477.569L663.578 478.168L664.208 479.012L665.018 478.338L664.379 477.569ZM1236.85 2.67681C1236.9 2.12685 1236.5 1.63997 1235.95 1.58924L1226.99 0.762876C1226.44 0.712151 1225.95 1.11687 1225.9 1.66678C1225.85 2.21675 1226.25 2.70371 1226.8 2.75443L1234.77 3.48893L1234.03 11.4552C1233.98 12.0051 1234.39 12.4921 1234.94 12.5428C1235.49 12.5935 1235.97 12.1888 1236.02 11.6389L1236.85 2.67681ZM1.67777 436.504L3.12207 435.132L1.74439 433.682L0.300094 435.055L1.67777 436.504ZM6.01067 432.387L8.89926 429.642L7.52158 428.193L4.63298 430.937L6.01067 432.387ZM11.7879 426.898L14.6764 424.153L13.2988 422.703L10.4102 425.448L11.7879 426.898ZM17.565 421.408L20.4536 418.663L19.076 417.213L16.1874 419.958L17.565 421.408ZM23.3422 415.918L26.2308 413.173L24.8531 411.723L21.9645 414.468L23.3422 415.918ZM29.1194 410.428L32.008 407.684L30.6303 406.234L27.7417 408.979L29.1194 410.428ZM34.8966 404.939L37.7852 402.194L36.4075 400.744L33.5189 403.489L34.8966 404.939ZM40.6738 399.449L43.5624 396.704L42.1847 395.254L39.2961 397.999L40.6738 399.449ZM46.451 393.959L49.3396 391.214L47.9619 389.765L45.0733 392.509L46.451 393.959ZM52.2282 388.47L55.1168 385.725L53.7391 384.275L50.8505 387.02L52.2282 388.47ZM58.0054 382.98L60.894 380.235L59.5163 378.785L56.6277 381.53L58.0054 382.98ZM63.7825 377.49L66.6712 374.745L65.2935 373.295L62.4049 376.04L63.7825 377.49ZM69.5597 372L72.4483 369.256L71.0707 367.806L68.1821 370.551L69.5597 372ZM75.3369 366.511L78.2255 363.766L76.8479 362.316L73.9593 365.061L75.3369 366.511ZM81.1141 361.021L84.0027 358.276L82.625 356.826L79.7364 359.571L81.1141 361.021ZM86.8913 355.531L89.7799 352.786L88.4022 351.337L85.5136 354.081L86.8913 355.531ZM92.6685 350.042L95.5571 347.297L94.1794 345.847L91.2908 348.592L92.6685 350.042ZM98.4457 344.552L101.334 341.807L99.9566 340.357L97.068 343.102L98.4457 344.552ZM104.223 339.062L107.111 336.317L105.734 334.867L102.845 337.612L104.223 339.062ZM110 333.572L112.889 330.828L111.511 329.378L108.622 332.123L110 333.572ZM115.777 328.083L118.666 325.338L117.288 323.888L114.4 326.633L115.777 328.083ZM121.554 322.593L124.443 319.848L123.065 318.398L120.177 321.143L121.554 322.593ZM127.332 317.103L130.22 314.358L128.843 312.909L125.954 315.654L127.332 317.103ZM133.109 311.614L135.997 308.869L134.62 307.419L131.731 310.164L133.109 311.614ZM138.886 306.124L141.775 303.379L140.397 301.929L137.508 304.674L138.886 306.124ZM144.663 300.634L147.552 297.889L146.174 296.44L143.285 299.184L144.663 300.634ZM150.44 295.145L153.329 292.4L151.951 290.95L149.063 293.695L150.44 295.145ZM156.217 289.655L159.106 286.91L157.728 285.46L154.84 288.205L156.217 289.655ZM161.995 284.165L164.883 281.42L163.506 279.97L160.617 282.715L161.995 284.165ZM167.772 278.675L170.66 275.931L169.283 274.481L166.394 277.226L167.772 278.675ZM173.549 273.186L176.438 270.441L175.06 268.991L172.171 271.736L173.549 273.186ZM179.326 267.696L182.215 264.951L180.837 263.501L177.949 266.246L179.326 267.696ZM185.103 262.206L187.992 259.461L186.614 258.012L183.726 260.757L185.103 262.206ZM190.881 256.717L193.769 253.972L192.391 252.522L189.503 255.267L190.881 256.717ZM196.658 251.227L199.546 248.482L198.169 247.032L195.28 249.777L196.658 251.227ZM202.435 245.737L205.324 242.992L203.946 241.543L201.057 244.287L202.435 245.737ZM208.212 240.248L211.101 237.503L209.723 236.053L206.834 238.798L208.212 240.248ZM213.989 234.758L216.878 232.013L215.5 230.563L212.612 233.308L213.989 234.758ZM219.767 229.268L222.655 226.523L221.277 225.073L218.389 227.818L219.767 229.268ZM225.544 223.778L228.432 221.034L227.055 219.584L224.166 222.329L225.544 223.778ZM231.321 218.289L234.209 215.544L232.832 214.094L229.943 216.839L231.321 218.289ZM237.098 212.799L239.987 210.054L238.609 208.604L235.72 211.349L237.098 212.799ZM242.875 207.309L245.764 204.564L244.386 203.115L241.498 205.859L242.875 207.309ZM248.652 201.82L251.541 199.075L250.163 197.625L247.275 200.37L248.652 201.82ZM254.43 196.33L257.318 193.585L255.94 192.135L253.052 194.88L254.43 196.33ZM260.207 190.84L263.095 188.095L261.718 186.646L258.829 189.39L260.207 190.84ZM265.984 185.351L268.873 182.606L267.495 181.156L264.606 183.901L265.984 185.351ZM271.761 179.861L274.65 177.116L273.272 175.666L270.383 178.411L271.761 179.861ZM277.538 174.371L280.427 171.626L279.049 170.176L276.161 172.921L277.538 174.371ZM283.315 168.881L286.204 166.137L284.826 164.687L281.938 167.432L283.315 168.881ZM289.093 163.392L291.981 160.647L290.604 159.197L287.715 161.942L289.093 163.392ZM294.87 157.902L297.758 155.157L296.381 153.707L293.492 156.452L294.87 157.902ZM300.647 152.412L303.536 149.667L302.158 148.218L299.269 150.962L300.647 152.412ZM306.424 146.923L309.313 144.178L307.935 142.728L305.047 145.473L306.424 146.923ZM312.201 141.433L315.09 138.688L313.712 137.238L310.824 139.983L312.201 141.433ZM317.979 135.943L320.867 133.198L319.49 131.748L316.601 134.493L317.979 135.943ZM323.756 130.453L326.644 127.709L325.267 126.259L322.378 129.004L323.756 130.453ZM329.533 124.964L332.422 122.219L331.044 120.769L328.155 123.514L329.533 124.964ZM335.31 119.474L338.199 116.729L336.821 115.279L333.932 118.024L335.31 119.474ZM341.087 113.984L343.976 111.24L342.598 109.79L339.71 112.535L341.087 113.984ZM346.864 108.495L349.753 105.75L348.375 104.3L345.487 107.045L346.864 108.495ZM352.642 103.005L355.53 100.26L354.153 98.8103L351.264 101.555L352.642 103.005ZM358.419 97.5153L361.307 94.7704L359.93 93.3206L357.041 96.0654L358.419 97.5153ZM364.196 92.0256L367.085 89.2807L365.707 87.8309L362.818 90.5758L364.196 92.0256ZM369.973 86.5359L371.418 85.1632L370.04 83.7133L368.596 85.086L369.973 86.5359ZM369.928 85.0367L371.131 86.6479L372.734 85.451L371.53 83.8398L369.928 85.0367ZM373.538 89.8703L375.945 93.0927L377.548 91.8958L375.141 88.6734L373.538 89.8703ZM378.352 96.315L380.759 99.5374L382.361 98.3406L379.955 95.1182L378.352 96.315ZM383.166 102.76L385.573 105.982L387.175 104.785L384.768 101.563L383.166 102.76ZM387.98 109.205L390.387 112.427L391.989 111.23L389.582 108.008L387.98 109.205ZM392.794 115.649L395.201 118.872L396.803 117.675L394.396 114.452L392.794 115.649ZM397.608 122.094L400.015 125.317L401.617 124.12L399.21 120.897L397.608 122.094ZM402.422 128.539L404.829 131.761L406.431 130.564L404.024 127.342L402.422 128.539ZM407.236 134.984L409.643 138.206L411.245 137.009L408.838 133.787L407.236 134.984ZM412.05 141.428L414.457 144.651L416.059 143.454L413.652 140.232L412.05 141.428ZM416.864 147.873L419.271 151.096L420.873 149.899L418.466 146.676L416.864 147.873ZM421.678 154.318L424.084 157.54L425.687 156.343L423.28 153.121L421.678 154.318ZM426.491 160.763L428.898 163.985L430.501 162.788L428.094 159.566L426.491 160.763ZM431.305 167.208L433.712 170.43L435.315 169.233L432.908 166.011L431.305 167.208ZM436.119 173.652L438.526 176.875L440.129 175.678L437.722 172.455L436.119 173.652ZM440.933 180.097L443.34 183.319L444.943 182.123L442.536 178.9L440.933 180.097ZM445.747 186.542L448.154 189.764L449.756 188.567L447.35 185.345L445.747 186.542ZM450.561 192.987L452.968 196.209L454.57 195.012L452.163 191.79L450.561 192.987ZM455.375 199.431L457.782 202.654L459.384 201.457L456.977 198.235L455.375 199.431ZM460.189 205.876L462.596 209.099L464.198 207.902L461.791 204.679L460.189 205.876ZM465.003 212.321L467.41 215.543L469.012 214.346L466.605 211.124L465.003 212.321ZM469.817 218.766L472.224 221.988L473.826 220.791L471.419 217.569L469.817 218.766ZM474.631 225.21L477.038 228.433L478.64 227.236L476.233 224.014L474.631 225.21ZM479.445 231.655L481.852 234.878L483.454 233.681L481.047 230.458L479.445 231.655ZM484.259 238.1L486.666 241.322L488.268 240.126L485.861 236.903L484.259 238.1ZM489.073 244.545L491.48 247.767L493.082 246.57L490.675 243.348L489.073 244.545ZM493.886 250.99L496.293 254.212L497.896 253.015L495.489 249.793L493.886 250.99ZM498.7 257.434L501.107 260.657L502.71 259.46L500.303 256.237L498.7 257.434ZM503.514 263.879L505.921 267.101L507.524 265.905L505.117 262.682L503.514 263.879ZM508.328 270.324L510.735 273.546L512.338 272.349L509.931 269.127L508.328 270.324ZM513.142 276.769L515.549 279.991L517.152 278.794L514.745 275.572L513.142 276.769ZM517.956 283.213L520.363 286.436L521.965 285.239L519.558 282.017L517.956 283.213ZM522.77 289.658L525.177 292.881L526.779 291.684L524.372 288.461L522.77 289.658ZM527.584 296.103L529.991 299.325L531.593 298.128L529.186 294.906L527.584 296.103ZM532.398 302.548L534.805 305.77L536.407 304.573L534 301.351L532.398 302.548ZM537.212 308.992L539.619 312.215L541.221 311.018L538.814 307.796L537.212 308.992ZM542.026 315.437L544.433 318.66L546.035 317.463L543.628 314.24L542.026 315.437ZM546.84 321.882L549.247 325.104L550.849 323.908L548.442 320.685L546.84 321.882ZM551.654 328.327L554.061 331.549L555.663 330.352L553.256 327.13L551.654 328.327ZM556.468 334.772L558.875 337.994L560.477 336.797L558.07 333.575L556.468 334.772ZM561.281 341.216L563.688 344.439L565.291 343.242L562.884 340.019L561.281 341.216ZM566.095 347.661L568.502 350.884L570.105 349.687L567.698 346.464L566.095 347.661ZM570.909 354.106L573.316 357.328L574.919 356.131L572.512 352.909L570.909 354.106ZM575.723 360.551L578.13 363.773L579.733 362.576L577.326 359.354L575.723 360.551ZM580.537 366.995L582.944 370.218L584.547 369.021L582.14 365.799L580.537 366.995ZM585.351 373.44L587.758 376.663L589.36 375.466L586.954 372.243L585.351 373.44ZM590.165 379.885L592.572 383.107L594.174 381.91L591.767 378.688L590.165 379.885ZM594.979 386.33L597.386 389.552L598.988 388.355L596.581 385.133L594.979 386.33ZM599.793 392.774L602.2 395.997L603.802 394.8L601.395 391.578L599.793 392.774ZM604.607 399.219L607.014 402.442L608.616 401.245L606.209 398.022L604.607 399.219ZM609.421 405.664L611.828 408.886L613.43 407.69L611.023 404.467L609.421 405.664ZM614.235 412.109L616.642 415.331L618.244 414.134L615.837 410.912L614.235 412.109ZM619.049 418.554L621.456 421.776L623.058 420.579L620.651 417.357L619.049 418.554ZM623.863 424.998L626.27 428.221L627.872 427.024L625.465 423.801L623.863 424.998ZM628.677 431.443L631.083 434.665L632.686 433.469L630.279 430.246L628.677 431.443ZM633.49 437.888L635.897 441.11L637.5 439.913L635.093 436.691L633.49 437.888ZM638.304 444.333L640.711 447.555L642.314 446.358L639.907 443.136L638.304 444.333ZM643.118 450.777L645.525 454L647.128 452.803L644.721 449.581L643.118 450.777ZM647.932 457.222L650.339 460.445L651.942 459.248L649.535 456.025L647.932 457.222ZM652.746 463.667L655.153 466.889L656.755 465.692L654.349 462.47L652.746 463.667ZM657.56 470.112L659.967 473.334L661.569 472.137L659.162 468.915L657.56 470.112ZM662.374 476.557L663.578 478.168L665.18 476.971L663.976 475.36L662.374 476.557ZM665.018 478.338L666.554 477.062L665.276 475.523L663.74 476.8L665.018 478.338ZM669.627 474.508L672.699 471.954L671.421 470.416L668.348 472.97L669.627 474.508ZM675.772 469.401L678.844 466.847L677.566 465.309L674.493 467.862L675.772 469.401ZM681.916 464.293L684.989 461.739L683.711 460.201L680.638 462.755L681.916 464.293ZM688.061 459.186L691.134 456.632L689.855 455.094L686.783 457.648L688.061 459.186ZM694.206 454.078L697.279 451.525L696 449.987L692.928 452.54L694.206 454.078ZM700.351 448.971L703.424 446.417L702.145 444.879L699.073 447.433L700.351 448.971ZM706.496 443.864L709.569 441.31L708.29 439.772L705.218 442.326L706.496 443.864ZM712.641 438.756L715.713 436.203L714.435 434.665L711.363 437.218L712.641 438.756ZM718.786 433.649L721.858 431.095L720.58 429.557L717.507 432.111L718.786 433.649ZM724.931 428.542L728.003 425.988L726.725 424.45L723.652 427.004L724.931 428.542ZM731.076 423.434L734.148 420.881L732.87 419.343L729.797 421.896L731.076 423.434ZM737.221 418.327L740.293 415.773L739.015 414.235L735.942 416.789L737.221 418.327ZM743.366 413.22L746.438 410.666L745.16 409.128L742.087 411.681L743.366 413.22ZM749.51 408.112L752.583 405.559L751.305 404.02L748.232 406.574L749.51 408.112ZM755.655 403.005L758.728 400.451L757.449 398.913L754.377 401.467L755.655 403.005ZM761.8 397.897L764.873 395.344L763.594 393.806L760.522 396.359L761.8 397.897ZM767.945 392.79L771.018 390.236L769.739 388.698L766.667 391.252L767.945 392.79ZM774.09 387.683L777.163 385.129L775.884 383.591L772.812 386.145L774.09 387.683ZM780.235 382.575L783.307 380.022L782.029 378.484L778.957 381.037L780.235 382.575ZM786.38 377.468L789.452 374.914L788.174 373.376L785.102 375.93L786.38 377.468ZM792.525 372.361L795.597 369.807L794.319 368.269L791.246 370.823L792.525 372.361ZM798.67 367.253L801.742 364.7L800.464 363.162L797.391 365.715L798.67 367.253ZM804.815 362.146L807.887 359.592L806.609 358.054L803.536 360.608L804.815 362.146ZM810.959 357.039L814.032 354.485L812.754 352.947L809.681 355.501L810.959 357.039ZM817.104 351.931L820.177 349.378L818.898 347.84L815.826 350.393L817.104 351.931ZM823.249 346.824L826.322 344.27L825.043 342.732L821.971 345.286L823.249 346.824ZM829.394 341.717L832.467 339.163L831.188 337.625L828.116 340.179L829.394 341.717ZM835.539 336.609L838.612 334.056L837.333 332.518L834.261 335.071L835.539 336.609ZM841.684 331.502L844.756 328.948L843.478 327.41L840.406 329.964L841.684 331.502ZM847.829 326.395L850.901 323.841L849.623 322.303L846.551 324.856L847.829 326.395ZM853.974 321.287L857.046 318.734L855.768 317.195L852.695 319.749L853.974 321.287ZM860.119 316.18L863.191 313.626L861.913 312.088L858.84 314.642L860.119 316.18ZM866.264 311.072L869.336 308.519L868.058 306.981L864.985 309.534L866.264 311.072ZM872.409 305.965L875.481 303.412L874.203 301.873L871.13 304.427L872.409 305.965ZM878.553 300.858L881.626 298.304L880.347 296.766L877.275 299.32L878.553 300.858ZM884.698 295.75L887.771 293.197L886.492 291.659L883.42 294.212L884.698 295.75ZM890.843 290.643L893.916 288.089L892.637 286.551L889.565 289.105L890.843 290.643ZM896.988 285.536L900.061 282.982L898.782 281.444L895.71 283.998L896.988 285.536ZM903.133 280.428L906.205 277.875L904.927 276.337L901.855 278.89L903.133 280.428ZM909.278 275.321L912.35 272.767L911.072 271.229L908 273.783L909.278 275.321ZM915.423 270.214L918.495 267.66L917.217 266.122L914.144 268.676L915.423 270.214ZM921.568 265.106L924.64 262.553L923.362 261.015L920.289 263.568L921.568 265.106ZM927.713 259.999L930.785 257.445L929.507 255.907L926.434 258.461L927.713 259.999ZM933.857 254.892L936.93 252.338L935.652 250.8L932.579 253.354L933.857 254.892ZM940.002 249.784L943.075 247.231L941.796 245.693L938.724 248.246L940.002 249.784ZM946.147 244.677L949.22 242.123L947.941 240.585L944.869 243.139L946.147 244.677ZM952.292 239.57L955.365 237.016L954.086 235.478L951.014 238.032L952.292 239.57ZM958.437 234.462L961.51 231.909L960.231 230.371L957.159 232.924L958.437 234.462ZM964.582 229.355L967.654 226.801L966.376 225.263L963.304 227.817L964.582 229.355ZM970.727 224.248L973.799 221.694L972.521 220.156L969.449 222.709L970.727 224.248ZM976.872 219.14L979.944 216.587L978.666 215.048L975.593 217.602L976.872 219.14ZM983.017 214.033L986.089 211.479L984.811 209.941L981.738 212.495L983.017 214.033ZM989.162 208.926L992.234 206.372L990.956 204.834L987.883 207.387L989.162 208.926ZM995.306 203.818L998.379 201.264L997.101 199.726L994.028 202.28L995.306 203.818ZM1001.45 198.711L1004.52 196.157L1003.25 194.619L1000.17 197.173L1001.45 198.711ZM1007.6 193.603L1010.67 191.05L1009.39 189.512L1006.32 192.065L1007.6 193.603ZM1013.74 188.496L1016.81 185.942L1015.54 184.404L1012.46 186.958L1013.74 188.496ZM1019.89 183.389L1022.96 180.835L1021.68 179.297L1018.61 181.851L1019.89 183.389ZM1026.03 178.281L1029.1 175.728L1027.83 174.19L1024.75 176.743L1026.03 178.281ZM1032.18 173.174L1035.25 170.62L1033.97 169.082L1030.9 171.636L1032.18 173.174ZM1038.32 168.067L1041.39 165.513L1040.11 163.975L1037.04 166.529L1038.32 168.067ZM1044.47 162.959L1047.54 160.406L1046.26 158.868L1043.19 161.421L1044.47 162.959ZM1050.61 157.852L1053.68 155.298L1052.4 153.76L1049.33 156.314L1050.61 157.852ZM1056.76 152.745L1059.83 150.191L1058.55 148.653L1055.48 151.207L1056.76 152.745ZM1062.9 147.637L1065.97 145.084L1064.69 143.545L1061.62 146.099L1062.9 147.637ZM1069.05 142.53L1072.12 139.976L1070.84 138.438L1067.77 140.992L1069.05 142.53ZM1075.19 137.423L1078.26 134.869L1076.98 133.331L1073.91 135.884L1075.19 137.423ZM1081.34 132.315L1084.41 129.761L1083.13 128.223L1080.06 130.777L1081.34 132.315ZM1087.48 127.208L1090.55 124.654L1089.27 123.116L1086.2 125.67L1087.48 127.208ZM1093.63 122.1L1096.7 119.547L1095.42 118.009L1092.35 120.562L1093.63 122.1ZM1099.77 116.993L1102.84 114.439L1101.56 112.901L1098.49 115.455L1099.77 116.993ZM1105.92 111.886L1108.99 109.332L1107.71 107.794L1104.64 110.347L1105.92 111.886ZM1112.06 106.778L1115.13 104.224L1113.85 102.686L1110.78 105.24L1112.06 106.778ZM1118.2 101.671L1121.28 99.1171L1120 97.579L1116.93 100.133L1118.2 101.671ZM1124.35 96.5634L1127.42 94.0097L1126.14 92.4716L1123.07 95.0253L1124.35 96.5634ZM1130.49 91.456L1133.57 88.9023L1132.29 87.3643L1129.22 89.9179L1130.49 91.456ZM1136.64 86.3486L1139.71 83.7949L1138.43 82.2569L1135.36 84.8105L1136.64 86.3486ZM1142.78 81.2412L1145.86 78.6876L1144.58 77.1494L1141.51 79.7032L1142.78 81.2412ZM1148.93 76.1339L1152 73.5802L1150.72 72.042L1147.65 74.5957L1148.93 76.1339ZM1155.07 71.0264L1158.15 68.4727L1156.87 66.9346L1153.8 69.4883L1155.07 71.0264ZM1161.22 65.919L1164.29 63.3653L1163.01 61.8273L1159.94 64.381L1161.22 65.919ZM1167.36 60.8117L1170.44 58.258L1169.16 56.7199L1166.09 59.2736L1167.36 60.8117ZM1173.51 55.7043L1176.58 53.1506L1175.3 51.6125L1172.23 54.1662L1173.51 55.7043ZM1179.65 50.5969L1182.73 48.0432L1181.45 46.5051L1178.38 49.0588L1179.65 50.5969ZM1185.8 45.4895L1188.87 42.9358L1187.59 41.3977L1184.52 43.9515L1185.8 45.4895ZM1191.94 40.3821L1195.02 37.8284L1193.74 36.2903L1190.67 38.844L1191.94 40.3821ZM1198.09 35.2747L1201.16 32.721L1199.88 31.183L1196.81 33.7366L1198.09 35.2747ZM1204.23 30.1673L1207.31 27.6136L1206.03 26.0756L1202.96 28.6292L1204.23 30.1673ZM1210.38 25.0599L1213.45 22.5062L1212.17 20.9682L1209.1 23.5219L1210.38 25.0599ZM1216.52 19.9526L1219.6 17.3989L1218.32 15.8608L1215.25 18.4144L1216.52 19.9526ZM1222.67 14.8452L1225.74 12.2915L1224.46 10.7534L1221.39 13.307L1222.67 14.8452ZM1228.81 9.73779L1231.89 7.18404L1230.61 5.64595L1227.54 8.19966L1228.81 9.73779ZM1234.96 4.63045L1236.49 3.35407L1235.22 1.81597L1233.68 3.09228L1234.96 4.63045ZM370.729 84.4383L371.53 83.8398L370.856 82.9377L370.04 83.7133L370.729 84.4383ZM664.379 477.569L663.578 478.168L664.208 479.012L665.018 478.338L664.379 477.569ZM1236.85 2.67681C1236.9 2.12685 1236.5 1.63997 1235.95 1.58924L1226.99 0.762876C1226.44 0.712151 1225.95 1.11687 1225.9 1.66678C1225.85 2.21675 1226.25 2.70371 1226.8 2.75443L1234.77 3.48893L1234.03 11.4552C1233.98 12.0051 1234.39 12.4921 1234.94 12.5428C1235.49 12.5935 1235.97 12.1888 1236.02 11.6389L1236.85 2.67681ZM1.67777 436.504L3.12207 435.132L1.74439 433.682L0.300094 435.055L1.67777 436.504ZM6.01067 432.387L8.89926 429.642L7.52158 428.193L4.63298 430.937L6.01067 432.387ZM11.7879 426.898L14.6764 424.153L13.2988 422.703L10.4102 425.448L11.7879 426.898ZM17.565 421.408L20.4536 418.663L19.076 417.213L16.1874 419.958L17.565 421.408ZM23.3422 415.918L26.2308 413.173L24.8531 411.723L21.9645 414.468L23.3422 415.918ZM29.1194 410.428L32.008 407.684L30.6303 406.234L27.7417 408.979L29.1194 410.428ZM34.8966 404.939L37.7852 402.194L36.4075 400.744L33.5189 403.489L34.8966 404.939ZM40.6738 399.449L43.5624 396.704L42.1847 395.254L39.2961 397.999L40.6738 399.449ZM46.451 393.959L49.3396 391.214L47.9619 389.765L45.0733 392.509L46.451 393.959ZM52.2282 388.47L55.1168 385.725L53.7391 384.275L50.8505 387.02L52.2282 388.47ZM58.0054 382.98L60.894 380.235L59.5163 378.785L56.6277 381.53L58.0054 382.98ZM63.7825 377.49L66.6712 374.745L65.2935 373.295L62.4049 376.04L63.7825 377.49ZM69.5597 372L72.4483 369.256L71.0707 367.806L68.1821 370.551L69.5597 372ZM75.3369 366.511L78.2255 363.766L76.8479 362.316L73.9593 365.061L75.3369 366.511ZM81.1141 361.021L84.0027 358.276L82.625 356.826L79.7364 359.571L81.1141 361.021ZM86.8913 355.531L89.7799 352.786L88.4022 351.337L85.5136 354.081L86.8913 355.531ZM92.6685 350.042L95.5571 347.297L94.1794 345.847L91.2908 348.592L92.6685 350.042ZM98.4457 344.552L101.334 341.807L99.9566 340.357L97.068 343.102L98.4457 344.552ZM104.223 339.062L107.111 336.317L105.734 334.867L102.845 337.612L104.223 339.062ZM110 333.572L112.889 330.828L111.511 329.378L108.622 332.123L110 333.572ZM115.777 328.083L118.666 325.338L117.288 323.888L114.4 326.633L115.777 328.083ZM121.554 322.593L124.443 319.848L123.065 318.398L120.177 321.143L121.554 322.593ZM127.332 317.103L130.22 314.358L128.843 312.909L125.954 315.654L127.332 317.103ZM133.109 311.614L135.997 308.869L134.62 307.419L131.731 310.164L133.109 311.614ZM138.886 306.124L141.775 303.379L140.397 301.929L137.508 304.674L138.886 306.124ZM144.663 300.634L147.552 297.889L146.174 296.44L143.285 299.184L144.663 300.634ZM150.44 295.145L153.329 292.4L151.951 290.95L149.063 293.695L150.44 295.145ZM156.217 289.655L159.106 286.91L157.728 285.46L154.84 288.205L156.217 289.655ZM161.995 284.165L164.883 281.42L163.506 279.97L160.617 282.715L161.995 284.165ZM167.772 278.675L170.66 275.931L169.283 274.481L166.394 277.226L167.772 278.675ZM173.549 273.186L176.438 270.441L175.06 268.991L172.171 271.736L173.549 273.186ZM179.326 267.696L182.215 264.951L180.837 263.501L177.949 266.246L179.326 267.696ZM185.103 262.206L187.992 259.461L186.614 258.012L183.726 260.757L185.103 262.206ZM190.881 256.717L193.769 253.972L192.391 252.522L189.503 255.267L190.881 256.717ZM196.658 251.227L199.546 248.482L198.169 247.032L195.28 249.777L196.658 251.227ZM202.435 245.737L205.324 242.992L203.946 241.543L201.057 244.287L202.435 245.737ZM208.212 240.248L211.101 237.503L209.723 236.053L206.834 238.798L208.212 240.248ZM213.989 234.758L216.878 232.013L215.5 230.563L212.612 233.308L213.989 234.758ZM219.767 229.268L222.655 226.523L221.277 225.073L218.389 227.818L219.767 229.268ZM225.544 223.778L228.432 221.034L227.055 219.584L224.166 222.329L225.544 223.778ZM231.321 218.289L234.209 215.544L232.832 214.094L229.943 216.839L231.321 218.289ZM237.098 212.799L239.987 210.054L238.609 208.604L235.72 211.349L237.098 212.799ZM242.875 207.309L245.764 204.564L244.386 203.115L241.498 205.859L242.875 207.309ZM248.652 201.82L251.541 199.075L250.163 197.625L247.275 200.37L248.652 201.82ZM254.43 196.33L257.318 193.585L255.94 192.135L253.052 194.88L254.43 196.33ZM260.207 190.84L263.095 188.095L261.718 186.646L258.829 189.39L260.207 190.84ZM265.984 185.351L268.873 182.606L267.495 181.156L264.606 183.901L265.984 185.351ZM271.761 179.861L274.65 177.116L273.272 175.666L270.383 178.411L271.761 179.861ZM277.538 174.371L280.427 171.626L279.049 170.176L276.161 172.921L277.538 174.371ZM283.315 168.881L286.204 166.137L284.826 164.687L281.938 167.432L283.315 168.881ZM289.093 163.392L291.981 160.647L290.604 159.197L287.715 161.942L289.093 163.392ZM294.87 157.902L297.758 155.157L296.381 153.707L293.492 156.452L294.87 157.902ZM300.647 152.412L303.536 149.667L302.158 148.218L299.269 150.962L300.647 152.412ZM306.424 146.923L309.313 144.178L307.935 142.728L305.047 145.473L306.424 146.923ZM312.201 141.433L315.09 138.688L313.712 137.238L310.824 139.983L312.201 141.433ZM317.979 135.943L320.867 133.198L319.49 131.748L316.601 134.493L317.979 135.943ZM323.756 130.453L326.644 127.709L325.267 126.259L322.378 129.004L323.756 130.453ZM329.533 124.964L332.422 122.219L331.044 120.769L328.155 123.514L329.533 124.964ZM335.31 119.474L338.199 116.729L336.821 115.279L333.932 118.024L335.31 119.474ZM341.087 113.984L343.976 111.24L342.598 109.79L339.71 112.535L341.087 113.984ZM346.864 108.495L349.753 105.75L348.375 104.3L345.487 107.045L346.864 108.495ZM352.642 103.005L355.53 100.26L354.153 98.8103L351.264 101.555L352.642 103.005ZM358.419 97.5153L361.307 94.7704L359.93 93.3206L357.041 96.0654L358.419 97.5153ZM364.196 92.0256L367.085 89.2807L365.707 87.8309L362.818 90.5758L364.196 92.0256ZM369.973 86.5359L371.418 85.1632L370.04 83.7133L368.596 85.086L369.973 86.5359ZM369.928 85.0367L371.131 86.6479L372.734 85.451L371.53 83.8398L369.928 85.0367ZM373.538 89.8703L375.945 93.0927L377.548 91.8958L375.141 88.6734L373.538 89.8703ZM378.352 96.315L380.759 99.5374L382.361 98.3406L379.955 95.1182L378.352 96.315ZM383.166 102.76L385.573 105.982L387.175 104.785L384.768 101.563L383.166 102.76ZM387.98 109.205L390.387 112.427L391.989 111.23L389.582 108.008L387.98 109.205ZM392.794 115.649L395.201 118.872L396.803 117.675L394.396 114.452L392.794 115.649ZM397.608 122.094L400.015 125.317L401.617 124.12L399.21 120.897L397.608 122.094ZM402.422 128.539L404.829 131.761L406.431 130.564L404.024 127.342L402.422 128.539ZM407.236 134.984L409.643 138.206L411.245 137.009L408.838 133.787L407.236 134.984ZM412.05 141.428L414.457 144.651L416.059 143.454L413.652 140.232L412.05 141.428ZM416.864 147.873L419.271 151.096L420.873 149.899L418.466 146.676L416.864 147.873ZM421.678 154.318L424.084 157.54L425.687 156.343L423.28 153.121L421.678 154.318ZM426.491 160.763L428.898 163.985L430.501 162.788L428.094 159.566L426.491 160.763ZM431.305 167.208L433.712 170.43L435.315 169.233L432.908 166.011L431.305 167.208ZM436.119 173.652L438.526 176.875L440.129 175.678L437.722 172.455L436.119 173.652ZM440.933 180.097L443.34 183.319L444.943 182.123L442.536 178.9L440.933 180.097ZM445.747 186.542L448.154 189.764L449.756 188.567L447.35 185.345L445.747 186.542ZM450.561 192.987L452.968 196.209L454.57 195.012L452.163 191.79L450.561 192.987ZM455.375 199.431L457.782 202.654L459.384 201.457L456.977 198.235L455.375 199.431ZM460.189 205.876L462.596 209.099L464.198 207.902L461.791 204.679L460.189 205.876ZM465.003 212.321L467.41 215.543L469.012 214.346L466.605 211.124L465.003 212.321ZM469.817 218.766L472.224 221.988L473.826 220.791L471.419 217.569L469.817 218.766ZM474.631 225.21L477.038 228.433L478.64 227.236L476.233 224.014L474.631 225.21ZM479.445 231.655L481.852 234.878L483.454 233.681L481.047 230.458L479.445 231.655ZM484.259 238.1L486.666 241.322L488.268 240.126L485.861 236.903L484.259 238.1ZM489.073 244.545L491.48 247.767L493.082 246.57L490.675 243.348L489.073 244.545ZM493.886 250.99L496.293 254.212L497.896 253.015L495.489 249.793L493.886 250.99ZM498.7 257.434L501.107 260.657L502.71 259.46L500.303 256.237L498.7 257.434ZM503.514 263.879L505.921 267.101L507.524 265.905L505.117 262.682L503.514 263.879ZM508.328 270.324L510.735 273.546L512.338 272.349L509.931 269.127L508.328 270.324ZM513.142 276.769L515.549 279.991L517.152 278.794L514.745 275.572L513.142 276.769ZM517.956 283.213L520.363 286.436L521.965 285.239L519.558 282.017L517.956 283.213ZM522.77 289.658L525.177 292.881L526.779 291.684L524.372 288.461L522.77 289.658ZM527.584 296.103L529.991 299.325L531.593 298.128L529.186 294.906L527.584 296.103ZM532.398 302.548L534.805 305.77L536.407 304.573L534 301.351L532.398 302.548ZM537.212 308.992L539.619 312.215L541.221 311.018L538.814 307.796L537.212 308.992ZM542.026 315.437L544.433 318.66L546.035 317.463L543.628 314.24L542.026 315.437ZM546.84 321.882L549.247 325.104L550.849 323.908L548.442 320.685L546.84 321.882ZM551.654 328.327L554.061 331.549L555.663 330.352L553.256 327.13L551.654 328.327ZM556.468 334.772L558.875 337.994L560.477 336.797L558.07 333.575L556.468 334.772ZM561.281 341.216L563.688 344.439L565.291 343.242L562.884 340.019L561.281 341.216ZM566.095 347.661L568.502 350.884L570.105 349.687L567.698 346.464L566.095 347.661ZM570.909 354.106L573.316 357.328L574.919 356.131L572.512 352.909L570.909 354.106ZM575.723 360.551L578.13 363.773L579.733 362.576L577.326 359.354L575.723 360.551ZM580.537 366.995L582.944 370.218L584.547 369.021L582.14 365.799L580.537 366.995ZM585.351 373.44L587.758 376.663L589.36 375.466L586.954 372.243L585.351 373.44ZM590.165 379.885L592.572 383.107L594.174 381.91L591.767 378.688L590.165 379.885ZM594.979 386.33L597.386 389.552L598.988 388.355L596.581 385.133L594.979 386.33ZM599.793 392.774L602.2 395.997L603.802 394.8L601.395 391.578L599.793 392.774ZM604.607 399.219L607.014 402.442L608.616 401.245L606.209 398.022L604.607 399.219ZM609.421 405.664L611.828 408.886L613.43 407.69L611.023 404.467L609.421 405.664ZM614.235 412.109L616.642 415.331L618.244 414.134L615.837 410.912L614.235 412.109ZM619.049 418.554L621.456 421.776L623.058 420.579L620.651 417.357L619.049 418.554ZM623.863 424.998L626.27 428.221L627.872 427.024L625.465 423.801L623.863 424.998ZM628.677 431.443L631.083 434.665L632.686 433.469L630.279 430.246L628.677 431.443ZM633.49 437.888L635.897 441.11L637.5 439.913L635.093 436.691L633.49 437.888ZM638.304 444.333L640.711 447.555L642.314 446.358L639.907 443.136L638.304 444.333ZM643.118 450.777L645.525 454L647.128 452.803L644.721 449.581L643.118 450.777ZM647.932 457.222L650.339 460.445L651.942 459.248L649.535 456.025L647.932 457.222ZM652.746 463.667L655.153 466.889L656.755 465.692L654.349 462.47L652.746 463.667ZM657.56 470.112L659.967 473.334L661.569 472.137L659.162 468.915L657.56 470.112ZM662.374 476.557L663.578 478.168L665.18 476.971L663.976 475.36L662.374 476.557ZM665.018 478.338L666.554 477.062L665.276 475.523L663.74 476.8L665.018 478.338ZM669.627 474.508L672.699 471.954L671.421 470.416L668.348 472.97L669.627 474.508ZM675.772 469.401L678.844 466.847L677.566 465.309L674.493 467.862L675.772 469.401ZM681.916 464.293L684.989 461.739L683.711 460.201L680.638 462.755L681.916 464.293ZM688.061 459.186L691.134 456.632L689.855 455.094L686.783 457.648L688.061 459.186ZM694.206 454.078L697.279 451.525L696 449.987L692.928 452.54L694.206 454.078ZM700.351 448.971L703.424 446.417L702.145 444.879L699.073 447.433L700.351 448.971ZM706.496 443.864L709.569 441.31L708.29 439.772L705.218 442.326L706.496 443.864ZM712.641 438.756L715.713 436.203L714.435 434.665L711.363 437.218L712.641 438.756ZM718.786 433.649L721.858 431.095L720.58 429.557L717.507 432.111L718.786 433.649ZM724.931 428.542L728.003 425.988L726.725 424.45L723.652 427.004L724.931 428.542ZM731.076 423.434L734.148 420.881L732.87 419.343L729.797 421.896L731.076 423.434ZM737.221 418.327L740.293 415.773L739.015 414.235L735.942 416.789L737.221 418.327ZM743.366 413.22L746.438 410.666L745.16 409.128L742.087 411.681L743.366 413.22ZM749.51 408.112L752.583 405.559L751.305 404.02L748.232 406.574L749.51 408.112ZM755.655 403.005L758.728 400.451L757.449 398.913L754.377 401.467L755.655 403.005ZM761.8 397.897L764.873 395.344L763.594 393.806L760.522 396.359L761.8 397.897ZM767.945 392.79L771.018 390.236L769.739 388.698L766.667 391.252L767.945 392.79ZM774.09 387.683L777.163 385.129L775.884 383.591L772.812 386.145L774.09 387.683ZM780.235 382.575L783.307 380.022L782.029 378.484L778.957 381.037L780.235 382.575ZM786.38 377.468L789.452 374.914L788.174 373.376L785.102 375.93L786.38 377.468ZM792.525 372.361L795.597 369.807L794.319 368.269L791.246 370.823L792.525 372.361ZM798.67 367.253L801.742 364.7L800.464 363.162L797.391 365.715L798.67 367.253ZM804.815 362.146L807.887 359.592L806.609 358.054L803.536 360.608L804.815 362.146ZM810.959 357.039L814.032 354.485L812.754 352.947L809.681 355.501L810.959 357.039ZM817.104 351.931L820.177 349.378L818.898 347.84L815.826 350.393L817.104 351.931ZM823.249 346.824L826.322 344.27L825.043 342.732L821.971 345.286L823.249 346.824ZM829.394 341.717L832.467 339.163L831.188 337.625L828.116 340.179L829.394 341.717ZM835.539 336.609L838.612 334.056L837.333 332.518L834.261 335.071L835.539 336.609ZM841.684 331.502L844.756 328.948L843.478 327.41L840.406 329.964L841.684 331.502ZM847.829 326.395L850.901 323.841L849.623 322.303L846.551 324.856L847.829 326.395ZM853.974 321.287L857.046 318.734L855.768 317.195L852.695 319.749L853.974 321.287ZM860.119 316.18L863.191 313.626L861.913 312.088L858.84 314.642L860.119 316.18ZM866.264 311.072L869.336 308.519L868.058 306.981L864.985 309.534L866.264 311.072ZM872.409 305.965L875.481 303.412L874.203 301.873L871.13 304.427L872.409 305.965ZM878.553 300.858L881.626 298.304L880.347 296.766L877.275 299.32L878.553 300.858ZM884.698 295.75L887.771 293.197L886.492 291.659L883.42 294.212L884.698 295.75ZM890.843 290.643L893.916 288.089L892.637 286.551L889.565 289.105L890.843 290.643ZM896.988 285.536L900.061 282.982L898.782 281.444L895.71 283.998L896.988 285.536ZM903.133 280.428L906.205 277.875L904.927 276.337L901.855 278.89L903.133 280.428ZM909.278 275.321L912.35 272.767L911.072 271.229L908 273.783L909.278 275.321ZM915.423 270.214L918.495 267.66L917.217 266.122L914.144 268.676L915.423 270.214ZM921.568 265.106L924.64 262.553L923.362 261.015L920.289 263.568L921.568 265.106ZM927.713 259.999L930.785 257.445L929.507 255.907L926.434 258.461L927.713 259.999ZM933.857 254.892L936.93 252.338L935.652 250.8L932.579 253.354L933.857 254.892ZM940.002 249.784L943.075 247.231L941.796 245.693L938.724 248.246L940.002 249.784ZM946.147 244.677L949.22 242.123L947.941 240.585L944.869 243.139L946.147 244.677ZM952.292 239.57L955.365 237.016L954.086 235.478L951.014 238.032L952.292 239.57ZM958.437 234.462L961.51 231.909L960.231 230.371L957.159 232.924L958.437 234.462ZM964.582 229.355L967.654 226.801L966.376 225.263L963.304 227.817L964.582 229.355ZM970.727 224.248L973.799 221.694L972.521 220.156L969.449 222.709L970.727 224.248ZM976.872 219.14L979.944 216.587L978.666 215.048L975.593 217.602L976.872 219.14ZM983.017 214.033L986.089 211.479L984.811 209.941L981.738 212.495L983.017 214.033ZM989.162 208.926L992.234 206.372L990.956 204.834L987.883 207.387L989.162 208.926ZM995.306 203.818L998.379 201.264L997.101 199.726L994.028 202.28L995.306 203.818ZM1001.45 198.711L1004.52 196.157L1003.25 194.619L1000.17 197.173L1001.45 198.711ZM1007.6 193.603L1010.67 191.05L1009.39 189.512L1006.32 192.065L1007.6 193.603ZM1013.74 188.496L1016.81 185.942L1015.54 184.404L1012.46 186.958L1013.74 188.496ZM1019.89 183.389L1022.96 180.835L1021.68 179.297L1018.61 181.851L1019.89 183.389ZM1026.03 178.281L1029.1 175.728L1027.83 174.19L1024.75 176.743L1026.03 178.281ZM1032.18 173.174L1035.25 170.62L1033.97 169.082L1030.9 171.636L1032.18 173.174ZM1038.32 168.067L1041.39 165.513L1040.11 163.975L1037.04 166.529L1038.32 168.067ZM1044.47 162.959L1047.54 160.406L1046.26 158.868L1043.19 161.421L1044.47 162.959ZM1050.61 157.852L1053.68 155.298L1052.4 153.76L1049.33 156.314L1050.61 157.852ZM1056.76 152.745L1059.83 150.191L1058.55 148.653L1055.48 151.207L1056.76 152.745ZM1062.9 147.637L1065.97 145.084L1064.69 143.545L1061.62 146.099L1062.9 147.637ZM1069.05 142.53L1072.12 139.976L1070.84 138.438L1067.77 140.992L1069.05 142.53ZM1075.19 137.423L1078.26 134.869L1076.98 133.331L1073.91 135.884L1075.19 137.423ZM1081.34 132.315L1084.41 129.761L1083.13 128.223L1080.06 130.777L1081.34 132.315ZM1087.48 127.208L1090.55 124.654L1089.27 123.116L1086.2 125.67L1087.48 127.208ZM1093.63 122.1L1096.7 119.547L1095.42 118.009L1092.35 120.562L1093.63 122.1ZM1099.77 116.993L1102.84 114.439L1101.56 112.901L1098.49 115.455L1099.77 116.993ZM1105.92 111.886L1108.99 109.332L1107.71 107.794L1104.64 110.347L1105.92 111.886ZM1112.06 106.778L1115.13 104.224L1113.85 102.686L1110.78 105.24L1112.06 106.778ZM1118.2 101.671L1121.28 99.1171L1120 97.579L1116.93 100.133L1118.2 101.671ZM1124.35 96.5634L1127.42 94.0097L1126.14 92.4716L1123.07 95.0253L1124.35 96.5634ZM1130.49 91.456L1133.57 88.9023L1132.29 87.3643L1129.22 89.9179L1130.49 91.456ZM1136.64 86.3486L1139.71 83.7949L1138.43 82.2569L1135.36 84.8105L1136.64 86.3486ZM1142.78 81.2412L1145.86 78.6876L1144.58 77.1494L1141.51 79.7032L1142.78 81.2412ZM1148.93 76.1339L1152 73.5802L1150.72 72.042L1147.65 74.5957L1148.93 76.1339ZM1155.07 71.0264L1158.15 68.4727L1156.87 66.9346L1153.8 69.4883L1155.07 71.0264ZM1161.22 65.919L1164.29 63.3653L1163.01 61.8273L1159.94 64.381L1161.22 65.919ZM1167.36 60.8117L1170.44 58.258L1169.16 56.7199L1166.09 59.2736L1167.36 60.8117ZM1173.51 55.7043L1176.58 53.1506L1175.3 51.6125L1172.23 54.1662L1173.51 55.7043ZM1179.65 50.5969L1182.73 48.0432L1181.45 46.5051L1178.38 49.0588L1179.65 50.5969ZM1185.8 45.4895L1188.87 42.9358L1187.59 41.3977L1184.52 43.9515L1185.8 45.4895ZM1191.94 40.3821L1195.02 37.8284L1193.74 36.2903L1190.67 38.844L1191.94 40.3821ZM1198.09 35.2747L1201.16 32.721L1199.88 31.183L1196.81 33.7366L1198.09 35.2747ZM1204.23 30.1673L1207.31 27.6136L1206.03 26.0756L1202.96 28.6292L1204.23 30.1673ZM1210.38 25.0599L1213.45 22.5062L1212.17 20.9682L1209.1 23.5219L1210.38 25.0599ZM1216.52 19.9526L1219.6 17.3989L1218.32 15.8608L1215.25 18.4144L1216.52 19.9526ZM1222.67 14.8452L1225.74 12.2915L1224.46 10.7534L1221.39 13.307L1222.67 14.8452ZM1228.81 9.73779L1231.89 7.18404L1230.61 5.64595L1227.54 8.19966L1228.81 9.73779ZM1234.96 4.63045L1236.49 3.35407L1235.22 1.81597L1233.68 3.09228L1234.96 4.63045Z" fill="black"/>
</svg>
