<svg width="20" height="21" viewBox="0 0 20 21" fill="none" xmlns="http://www.w3.org/2000/svg">
<path fill-rule="evenodd" clip-rule="evenodd" d="M2 10.2192C2.00014 8.65157 2.44451 7.11724 3.27979 5.80037C4.11506 4.48349 5.30576 3.44 6.70901 2.7951C8.11225 2.15021 9.66844 1.9313 11.1908 2.16466C12.7132 2.39801 14.1372 3.07371 15.2918 4.11067C16.4464 5.14764 17.2826 6.50182 17.7002 8.01073C18.1177 9.51964 18.0988 11.1192 17.6457 12.6174C17.1926 14.1156 16.3246 15.4489 15.1458 16.4573C13.967 17.4656 12.5275 18.1062 11 18.3022V12.2557H13C13.2652 12.2557 13.5196 12.1485 13.7071 11.9575C13.8946 11.7665 14 11.5075 14 11.2375C14 10.9674 13.8946 10.7084 13.7071 10.5175C13.5196 10.3265 13.2652 10.2192 13 10.2192H11V8.18271C11 7.91265 11.1054 7.65365 11.2929 7.46269C11.4804 7.27173 11.7348 7.16445 12 7.16445H12.5C12.7652 7.16445 13.0196 7.05716 13.2071 6.8662C13.3946 6.67524 13.5 6.41624 13.5 6.14618C13.5 5.87613 13.3946 5.61713 13.2071 5.42617C13.0196 5.23521 12.7652 5.12792 12.5 5.12792H12C11.2044 5.12792 10.4413 5.44977 9.87868 6.02265C9.31607 6.59553 9 7.37253 9 8.18271V10.2192H7C6.73478 10.2192 6.48043 10.3265 6.29289 10.5175C6.10536 10.7084 6 10.9674 6 11.2375C6 11.5075 6.10536 11.7665 6.29289 11.9575C6.48043 12.1485 6.73478 12.2557 7 12.2557H9V18.3022C7.0667 18.0539 5.28882 17.0958 4 15.6076C2.71119 14.1194 2.00003 12.2034 2 10.2192ZM10 20.4018C15.523 20.4018 20 15.8431 20 10.2192C20 4.59537 15.523 0.0366211 10 0.0366211C4.477 0.0366211 0 4.59537 0 10.2192C0 15.8431 4.477 20.4018 10 20.4018Z" fill="#DEB41F"/>
</svg>
