<svg width="47" height="49" viewBox="0 0 47 49" fill="none" xmlns="http://www.w3.org/2000/svg">
<path d="M43.2548 32.5714C44.1221 31.9341 44.8128 31.167 45.2847 30.3166C45.7566 29.4662 46 28.5505 46 27.625C46 26.6995 45.7566 25.7838 45.2847 24.9334C44.8128 24.083 44.1221 23.3159 43.2548 22.6786C41.4795 21.3748 39.1252 20.6479 36.6776 20.6479C34.23 20.6479 31.8757 21.3748 30.1003 22.6786L23.5 27.7857L16.8997 22.6786C15.1243 21.3748 12.77 20.6479 10.3224 20.6479C7.87477 20.6479 5.52048 21.3748 3.74515 22.6786C2.87787 23.3159 2.18724 24.083 1.71531 24.9334C1.24337 25.7838 1 26.6995 1 27.625C1 28.5505 1.24337 29.4662 1.71531 30.3166C2.18724 31.167 2.87787 31.9341 3.74515 32.5714L23.5 47.4286L43.2548 32.5714ZM23.5 15.2857C25.9483 15.2857 28.2963 14.5332 30.0275 13.1936C31.7587 11.8541 32.7312 10.0373 32.7312 8.14286C32.7312 6.24845 31.7587 4.43164 30.0275 3.09209C28.2963 1.75255 25.9483 1 23.5 1C21.0517 1 18.7037 1.75255 16.9725 3.09209C15.2413 4.43164 14.2688 6.24845 14.2688 8.14286C14.2688 10.0373 15.2413 11.8541 16.9725 13.1936C18.7037 14.5332 21.0517 15.2857 23.5 15.2857Z" stroke="black" stroke-width="2" stroke-linecap="round" stroke-linejoin="round"/>
</svg>
