<svg width="21" height="22" viewBox="0 0 21 22" fill="none" xmlns="http://www.w3.org/2000/svg">
<path d="M1 11.2191C1 6.65936 1 4.37846 2.391 2.96205C3.782 1.54565 6.021 1.54565 10.5 1.54565C14.978 1.54565 17.218 1.54565 18.609 2.96205C20 4.37846 20 6.65834 20 11.2191C20 15.7789 20 18.0598 18.609 19.4762C17.218 20.8926 14.979 20.8926 10.5 20.8926C6.022 20.8926 3.782 20.8926 2.391 19.4762C1 18.0598 1 15.7799 1 11.2191Z" stroke="#DEB41F" stroke-width="1.5" stroke-linecap="round" stroke-linejoin="round"/>
<path d="M16.008 5.61865H15.998M15 11.2191C15 12.4344 14.5259 13.5998 13.682 14.4592C12.8381 15.3185 11.6935 15.8013 10.5 15.8013C9.30653 15.8013 8.16193 15.3185 7.31802 14.4592C6.47411 13.5998 6 12.4344 6 11.2191C6 10.0038 6.47411 8.83832 7.31802 7.979C8.16193 7.11968 9.30653 6.63691 10.5 6.63691C11.6935 6.63691 12.8381 7.11968 13.682 7.979C14.5259 8.83832 15 10.0038 15 11.2191Z" stroke="#DEB41F" stroke-width="1.5" stroke-linecap="round" stroke-linejoin="round"/>
</svg>
