<svg width="45" height="45" viewBox="0 0 45 45" fill="none" xmlns="http://www.w3.org/2000/svg">
<path d="M18.9893 40.1036C19.0951 40.4605 19.2775 40.7949 19.5259 41.0879C19.7744 41.3808 20.0841 41.6265 20.4374 41.8109C20.7906 41.9953 21.1805 42.1148 21.5848 42.1625C21.989 42.2103 22.3997 42.1853 22.7933 42.0892L39.6009 38.0084C40.3953 37.8147 41.0723 37.3429 41.4831 36.6969C41.8938 36.0508 42.0047 35.2834 41.7914 34.5632L32.992 4.89527C32.8865 4.53848 32.7045 4.20402 32.4564 3.91098C32.2083 3.61795 31.8989 3.3721 31.546 3.18745C31.193 3.00281 30.8034 2.883 30.3993 2.83486C29.9953 2.78673 29.5848 2.81121 29.1911 2.90691L12.3805 6.99051C11.5867 7.18425 10.9103 7.65556 10.4996 8.30096C10.0889 8.94637 9.97751 9.71311 10.1899 10.4329L18.9893 40.1036ZM23.6 44.8059C22.8126 44.9978 21.9912 45.0471 21.1827 44.951C20.3743 44.8549 19.5947 44.6154 18.8884 44.2461C18.1821 43.8767 17.5631 43.3849 17.0667 42.7986C16.5702 42.2123 16.2061 41.5431 15.9952 40.8292L7.19576 11.1641C6.76919 9.72341 6.99143 8.18813 7.81361 6.89596C8.63579 5.60379 9.99057 4.66056 11.5799 4.27374L28.3844 0.192953C29.1716 0.00108108 29.9929 -0.0483234 30.8011 0.0475628C31.6094 0.143449 32.3889 0.382747 33.0952 0.751784C33.8014 1.12082 34.4205 1.61237 34.9171 2.19834C35.4136 2.78431 35.778 3.45322 35.9893 4.16686L44.7887 33.8376C45.2143 35.2779 44.9916 36.8125 44.1695 38.104C43.3474 39.3955 41.9932 40.3383 40.4045 40.7252L23.6 44.8059ZM13.9691 44.9972H14.4407C13.9714 44.3595 13.6202 43.6565 13.4013 42.916L13.1561 42.0864C12.4975 41.9256 11.9157 41.5727 11.5007 41.0821C11.0857 40.5915 10.8605 39.9906 10.8601 39.3724V34.3382L7.74495 23.8424L7.76046 39.3752C7.76046 40.1141 7.92107 40.8458 8.23312 41.5284C8.54517 42.211 9.00254 42.8312 9.57911 43.3535C10.1557 43.8759 10.8401 44.2901 11.5934 44.5726C12.3466 44.8552 13.1539 45.0004 13.9691 45M4.6484 40.7814C4.6484 41.2089 4.68977 41.6261 4.77251 42.0329L4.60496 41.9907C3.81714 41.8001 3.07849 41.4706 2.43124 41.0211C1.78399 40.5715 1.24082 40.0108 0.832797 39.3709C0.424769 38.731 0.159878 38.0244 0.0532678 37.2917C-0.0533429 36.5589 0.000416643 35.8143 0.211473 35.1004L4.62979 20.1103L4.63909 30.9774L3.21183 35.8288C2.8395 37.0831 3.46626 38.3656 4.6453 38.9899L4.6484 40.7814ZM17.8413 9.84227C18.1469 9.84227 18.4495 9.89683 18.7318 10.0028C19.0142 10.1088 19.2707 10.2642 19.4868 10.4601C19.7029 10.6559 19.8743 10.8885 19.9912 11.1444C20.1082 11.4003 20.1684 11.6746 20.1684 11.9516C20.1684 12.2286 20.1082 12.5028 19.9912 12.7588C19.8743 13.0147 19.7029 13.2472 19.4868 13.4431C19.2707 13.6389 19.0142 13.7943 18.7318 13.9003C18.4495 14.0063 18.1469 14.0609 17.8413 14.0609C17.2241 14.0609 16.6322 13.8386 16.1958 13.4431C15.7594 13.0475 15.5142 12.511 15.5142 11.9516C15.5142 11.3921 15.7594 10.8556 16.1958 10.4601C16.6322 10.0645 17.2241 9.84227 17.8413 9.84227Z" fill="black"/>
</svg>
