<svg width="45" height="49" viewBox="0 0 49 66" fill="none" xmlns="http://www.w3.org/2000/svg">
<path d="M6.59867 65.1687V61.3783C4.78295 61.3783 3.22992 60.7781 1.93958 59.5778C0.64925 58.3775 0.00272222 56.9384 0 55.2605V18.2281C0 16.5452 0.646527 15.1048 1.93958 13.907C3.23264 12.7093 4.7843 12.1079 6.59458 12.1028H15.9413V2.91862C15.9413 2.13527 16.2544 1.45299 16.8805 0.871797C17.5066 0.2906 18.2403 0 19.0814 0H29.9186C30.7625 0 31.4975 0.2906 32.1236 0.871797C32.7497 1.45299 33.0628 2.13527 33.0628 2.91862V12.1028H42.4054C44.2184 12.1028 45.7701 12.703 47.0604 13.9033C48.3507 15.1036 48.9973 16.5439 49 18.2243V55.2567C49 56.9397 48.3535 58.38 47.0604 59.5778C45.7674 60.7756 44.2157 61.3757 42.4054 61.3783V65.1687H38.3221V61.3783H10.6779V65.1687H6.59867ZM20.0247 12.1028H28.9753V3.79421H20.0247V12.1028ZM24.5 32.5142C28.1069 32.5142 31.6295 32.0872 35.0677 31.2331C38.5058 30.3789 41.7888 29.1003 44.9167 27.3971V18.2243C44.9167 17.5446 44.6812 16.9861 44.2103 16.549C43.7393 16.1118 43.1377 15.8932 42.4054 15.8932H6.59458C5.8623 15.8932 5.26069 16.1118 4.78975 16.549C4.31881 16.9861 4.08333 17.5459 4.08333 18.2281V27.3971C7.21389 29.1028 10.4983 30.3815 13.9364 31.2331C17.3746 32.0846 20.8958 32.5117 24.5 32.5142ZM22.4583 40.0951V36.2591C19.2352 36.0418 16.0911 35.568 13.0258 34.8377C9.96061 34.1075 6.97978 33.06 4.08333 31.6955V55.2567C4.08333 55.9365 4.31881 56.4949 4.78975 56.9321C5.26069 57.3693 5.86367 57.5878 6.59867 57.5878H42.4054C43.1377 57.5878 43.7393 57.3693 44.2103 56.9321C44.6812 56.4949 44.9167 55.9365 44.9167 55.2567V31.6955C42.0175 33.06 39.0367 34.1075 35.9742 34.8377C32.9117 35.568 29.7675 36.0418 26.5417 36.2591V40.0951H22.4583Z" fill="#4B3307" fill-opacity="0.8"/>
</svg>
