<svg width="71" height="67" viewBox="0 0 71 67" fill="none" xmlns="http://www.w3.org/2000/svg">
<path d="M44.3606 58.3369C42.9619 54.6653 37.9529 42.3407 35.8761 37.242C31.9605 39.7109 27.5904 42.0492 23.4085 43.7008C22.1092 47.9888 19.5248 56.1259 18.2752 57.2113C16.131 59.0773 15.3216 58.8361 14.9915 56.2767C14.6613 53.7173 13.2697 45.4361 13.2697 45.4361C13.2697 45.4361 5.59462 41.3524 3.18772 40.1833C0.780822 39.0141 0.819872 38.2034 3.39007 36.9204C4.88817 36.1733 13.7809 36.6356 18.4492 36.9371C21.5057 33.7513 25.3042 30.6324 29.0743 27.9625C24.7611 24.3579 14.3418 15.6512 11.2036 13.1421C8.44882 10.9378 11.4841 10.4721 11.4841 10.4721C12.8686 10.2376 15.8222 10.0299 17.2635 10.442C26.2237 12.998 40.1326 17.3698 43.4021 18.4016L47.5272 15.6512C64.2193 4.4957 68.4261 6.96465 69.2213 8.0467C70.0165 9.12875 71.0069 13.7451 54.3148 24.9039L50.1968 27.661C50.0939 30.944 49.6395 44.9168 49.0928 53.8278C49.004 55.2616 47.7899 57.8411 47.087 59.0002C47.0835 59.0002 45.5854 61.563 44.3606 58.3369Z" fill="black"/>
</svg>
