<svg width="50" height="45" viewBox="0 0 50 45" fill="none" xmlns="http://www.w3.org/2000/svg">
<path d="M1 1H5.09756L6.85366 8.16667M6.85366 8.16667L12.7073 32.0556H43.1463L49 8.16667H6.85366Z" stroke="black" stroke-width="2" stroke-linecap="round" stroke-linejoin="round"/>
<path d="M12.7075 44C14.6472 44 16.2197 42.3957 16.2197 40.4166C16.2197 38.4376 14.6472 36.8333 12.7075 36.8333C10.7678 36.8333 9.19531 38.4376 9.19531 40.4166C9.19531 42.3957 10.7678 44 12.7075 44Z" stroke="black" stroke-width="2" stroke-linecap="round" stroke-linejoin="round"/>
<path d="M43.146 44C45.0857 44 46.6582 42.3957 46.6582 40.4166C46.6582 38.4376 45.0857 36.8333 43.146 36.8333C41.2063 36.8333 39.6338 38.4376 39.6338 40.4166C39.6338 42.3957 41.2063 44 43.146 44Z" stroke="black" stroke-width="2" stroke-linecap="round" stroke-linejoin="round"/>
</svg>
