<svg width="21" height="22" viewBox="0 0 21 22" fill="none" xmlns="http://www.w3.org/2000/svg">
<path d="M1 11.2191C1 6.65936 1 4.37846 2.391 2.96205C3.782 1.54565 6.021 1.54565 10.5 1.54565C14.978 1.54565 17.218 1.54565 18.609 2.96205C20 4.37846 20 6.65834 20 11.2191C20 15.7789 20 18.0598 18.609 19.4762C17.218 20.8926 14.979 20.8926 10.5 20.8926C6.022 20.8926 3.782 20.8926 2.391 19.4762C1 18.0598 1 15.7799 1 11.2191Z" stroke="#DEB41F" stroke-width="1.5" stroke-linecap="round" stroke-linejoin="round"/>
<path d="M9.03589 10.2091C8.21589 10.091 6.34589 10.2855 5.42989 12.0114C4.51389 13.7374 5.43689 15.5336 6.01389 16.2158C6.58289 16.8543 8.39189 18.063 10.3109 16.8828C10.7869 16.5906 11.3799 16.3716 12.0519 14.0856L11.9739 5.09033C11.8439 6.0811 12.9189 8.40477 15.9779 8.6797" stroke="#DEB41F" stroke-width="1.5" stroke-linecap="round" stroke-linejoin="round"/>
</svg>
